<svg width="1073" height="500" viewBox="0 0 1073 500" fill="none" xmlns="http://www.w3.org/2000/svg">
<rect width="1072.96" height="500" fill="white"/>
<path d="M269.808 196.216H121.799V344.225H269.808V196.216Z" fill="#3216B5"/>
<path d="M333.97 156.78H185.961V304.789H333.97V156.78Z" fill="#3216B5"/>
<path d="M281.528 255.393V245.546H257.733V245.455C266.132 241.742 280.758 235.426 280.758 222.296C280.758 211.927 272.064 203.076 259.793 203.076C247.522 203.076 241.228 211.452 238.488 219.036L247.567 222.568C249.605 216.251 253.227 212.403 259.861 212.403C265.657 212.403 270.456 216.704 269.958 222.409C269.324 229.744 261.423 235.087 254.155 239.071C248.586 242.105 239.96 246.429 239.96 246.429V255.439H281.528V255.393Z" fill="white"/>
<path d="M165.789 245.523V294.83H176.498V257.861L191.848 294.852H199.999L215.054 257.861V294.852H225.876V245.545H210.255L195.833 280.907L181.32 245.545H165.789V245.523Z" fill="white"/>
<path d="M580.675 294.717H558.193C559.71 290.8 560.887 286.748 561.725 282.65C563.445 274.319 564.849 265.196 564.849 265.196H580.652L580.675 294.717ZM591.768 294.717V255.303H555.068C555.068 255.303 553.551 271.874 551.378 282.854C550.563 286.906 549.363 290.868 547.846 294.717H540.646V319.845H551.469V304.587H587.24V319.845H598.062V294.717H591.768Z" fill="#0F0F0F"/>
<path d="M383.453 255.371V304.655H394.456V281.858H394.932L415.829 304.655H430.726L406.592 279.005L429.141 255.371H414.516L394.909 276.153H394.434V255.371H383.453Z" fill="#0F0F0F"/>
<path d="M437.653 304.655H462.739C467.222 304.791 471.637 303.659 475.508 301.417C479.04 299.199 480.806 295.78 480.806 291.275C480.874 288.264 479.81 285.367 477.84 283.058C476.051 280.862 473.561 279.39 470.754 278.892C476.051 276.583 478.7 272.802 478.7 267.709C478.7 259.853 471.84 255.348 462.241 255.348H437.631V304.655H437.653ZM448.453 264.222H460.135C469.463 263.475 470.029 275.745 459.841 275.564H448.43V264.222H448.453ZM448.453 283.51H460.679C465.773 283.51 469.463 285.548 469.463 289.306C469.463 293.381 466.226 295.599 461.131 295.599H448.453V283.51Z" fill="#0F0F0F"/>
<path d="M520.745 271.24C520.745 273.98 519.183 275.383 516.126 275.383H510.036C501.342 275.383 489.501 279.005 489.501 290.438V290.981C489.434 292.973 489.841 294.92 490.656 296.731C491.471 298.542 492.671 300.127 494.211 301.395C497.561 304.157 501.795 305.606 506.142 305.47C512.798 305.47 517.643 302.98 520.655 297.909L520.858 304.655H531.454V273.255C531.522 270.222 530.956 267.233 529.801 264.426C526.722 257.68 520.541 254.375 511.304 254.375C501.229 254.375 494.188 258.517 490.317 266.916L498.739 271.716C501.229 266.418 505.372 263.86 511.01 263.86C517.191 263.86 520.722 267.188 520.722 271.263V271.24H520.745ZM520.655 284.756C520.655 292.136 515.855 296.754 508.361 296.754C503.652 296.754 500.505 294.105 500.505 290.008C500.505 288.921 500.754 287.857 501.274 286.884C501.772 285.91 502.542 285.118 503.448 284.529C505.463 283.488 507.75 283.012 510.036 283.148H520.632V284.71L520.655 284.756Z" fill="#0F0F0F"/>
<path d="M663.085 279.82C663.13 273.3 660.73 267.007 656.338 262.162C651.878 257 646.059 254.42 638.86 254.397C635.758 254.442 632.724 255.144 629.894 256.434C626.725 257.747 624.053 260.034 622.31 263V255.348H611.578V329.285H622.581V297.478C624.37 300.172 626.974 302.255 629.985 303.477C632.702 304.655 635.622 305.311 638.588 305.424C641.894 305.515 645.176 304.881 648.21 303.591C651.244 302.278 653.961 300.331 656.157 297.863C660.708 292.95 663.198 286.476 663.085 279.82ZM626.475 268.818C627.834 267.324 629.487 266.146 631.343 265.377C633.2 264.607 635.192 264.222 637.207 264.29C639.199 264.222 641.192 264.584 643.026 265.377C644.859 266.146 646.49 267.346 647.825 268.84C650.52 271.919 651.991 275.858 651.991 279.933C651.991 284.008 650.497 287.947 647.825 291.026C646.49 292.475 644.837 293.63 643.003 294.399C641.169 295.169 639.199 295.509 637.207 295.441C635.215 295.509 633.222 295.146 631.366 294.377C629.509 293.607 627.857 292.475 626.475 291.026C623.849 287.925 622.423 284.008 622.423 279.933C622.423 275.858 623.872 271.919 626.475 268.818Z" fill="#0F0F0F"/>
<path d="M720.16 265.241H736.144V304.655H747.238V265.241H763.335V255.371H720.16V265.241Z" fill="#0F0F0F"/>
<path d="M771.262 304.655H782.265V284.529H804.634V304.655H815.637V255.371H804.634V274.953H782.265V255.371H771.262V304.655Z" fill="#0F0F0F"/>
<path d="M892.591 255.371H881.588V304.677H892.591V255.371Z" fill="#0F0F0F"/>
<path d="M906.423 304.655H917.064L940.451 271.806V304.655H951.16V255.371H940.519L917.132 288.332V255.371H906.4L906.423 304.655Z" fill="#0F0F0F"/>
<path d="M841.422 255.371V271.602H854.35C866.462 271.602 874.5 276.945 874.5 287.676C874.5 298.407 867.662 304.655 855.187 304.655H830.441V255.371H841.422ZM853.716 295.441C860.191 295.441 863.451 292.86 863.451 287.585C863.451 282.695 859.489 280.205 853.557 280.205H841.445V295.418L853.716 295.441Z" fill="#0F0F0F"/>
<path d="M944.708 234H912.898V243.236H944.708V234Z" fill="#0F0F0F"/>
<path d="M702.751 271.24C702.751 273.98 701.189 275.383 698.132 275.383H692.042C683.348 275.383 671.507 279.005 671.507 290.438V290.981C671.462 292.973 671.847 294.92 672.662 296.731C673.477 298.542 674.677 300.127 676.217 301.395C679.567 304.157 683.801 305.606 688.148 305.47C694.804 305.47 699.649 302.98 702.661 297.909L702.864 304.655H713.46V273.255C713.528 270.222 712.962 267.233 711.807 264.426C708.728 257.68 702.547 254.375 693.31 254.375C683.235 254.375 676.194 258.517 672.322 266.916L680.745 271.716C683.235 266.418 687.378 263.86 693.016 263.86C699.197 263.86 702.728 267.188 702.728 271.263L702.751 271.24ZM702.661 284.756C702.661 292.136 697.861 296.754 690.367 296.754C685.658 296.754 682.533 294.105 682.533 290.008C682.511 288.921 682.782 287.857 683.303 286.884C683.824 285.91 684.571 285.118 685.477 284.529C687.492 283.488 689.778 283.012 692.065 283.148H702.661V284.756Z" fill="#0F0F0F"/>
<path d="M383.453 156.802V206.109H394.162V169.14L409.512 206.109H417.663L432.741 169.14V206.109H443.563V156.802H427.941L413.519 192.164L399.007 156.802H383.453Z" fill="#0F0F0F"/>
<path d="M508.721 166.695H524.705V206.109H535.799V166.695H551.896V156.802H508.721V166.695Z" fill="#0F0F0F"/>
<path d="M612.731 181.252C612.777 174.732 610.377 168.416 605.985 163.594C601.547 158.432 595.728 155.829 588.506 155.829C585.404 155.897 582.348 156.576 579.541 157.866C576.371 159.179 573.722 161.466 571.979 164.431V156.757H561.225V230.785H572.228V198.887C574.016 201.604 576.597 203.709 579.631 204.886C582.348 206.086 585.269 206.72 588.235 206.833C591.54 206.924 594.823 206.29 597.857 205C600.89 203.687 603.607 201.74 605.803 199.272C610.354 194.382 612.845 187.953 612.731 181.274V181.252ZM576.122 170.295C577.48 168.801 579.133 167.623 580.99 166.854C582.846 166.084 584.838 165.699 586.853 165.767C588.846 165.699 590.838 166.061 592.672 166.854C594.506 167.623 596.136 168.801 597.472 170.295C600.166 173.373 601.638 177.313 601.638 181.388C601.638 185.463 600.166 189.402 597.472 192.48C596.136 193.929 594.483 195.084 592.649 195.831C590.816 196.601 588.846 196.94 586.853 196.872C584.861 196.94 582.869 196.578 581.012 195.808C579.156 195.039 577.503 193.907 576.122 192.458C573.496 189.356 572.069 185.44 572.069 181.365C572.069 177.29 573.518 173.374 576.122 170.272" fill="#0F0F0F"/>
<path d="M466.816 176.362C467.224 173.215 468.763 170.34 471.186 168.257C473.586 166.197 476.687 165.111 479.857 165.201C486.943 165.201 492.354 169.457 492.717 176.362H466.816ZM503.946 181.252C503.946 173.6 501.818 167.51 497.539 162.779C493.283 158.07 487.374 155.783 479.857 155.783C476.529 155.693 473.246 156.327 470.167 157.617C467.111 158.908 464.371 160.832 462.107 163.277C459.775 165.676 457.964 168.506 456.741 171.608C455.519 174.709 454.907 178.037 454.975 181.365C454.885 184.761 455.519 188.157 456.764 191.303C458.032 194.45 459.934 197.325 462.356 199.725C464.801 202.125 467.677 204.004 470.869 205.249C474.061 206.494 477.457 207.105 480.853 207.015C489.457 207.015 497.267 203.008 501.546 195.763L493.6 190.466C490.906 195.107 486.604 197.461 480.695 197.461C477.05 197.506 473.495 196.239 470.71 193.862C469.352 192.73 468.243 191.326 467.473 189.719C466.703 188.111 466.295 186.368 466.295 184.625H503.72C503.856 183.493 503.924 182.338 503.924 181.207" fill="#0F0F0F"/>
</svg>
