<svg width="1000" height="1000" viewBox="0 0 1000 1000" fill="none" xmlns="http://www.w3.org/2000/svg">
<rect width="1000" height="1000" fill="white"/>
<path d="M634.18 326.252H160.465V799.967H634.18V326.252Z" fill="#3216B5"/>
<path d="M839.536 200.033H365.82V673.748H839.536V200.033Z" fill="#3216B5"/>
<path d="M671.69 515.654V484.135H595.532V483.845C622.416 471.963 669.226 451.747 669.226 409.722C669.226 376.537 641.401 348.207 602.126 348.207C562.852 348.207 542.707 375.016 533.939 399.289L562.997 410.592C569.518 390.376 581.112 378.059 602.344 378.059C620.894 378.059 636.256 391.825 634.662 410.085C632.633 433.561 607.344 450.66 584.083 463.413C566.258 473.122 538.649 486.961 538.649 486.961V515.799H671.69V515.654Z" fill="white"/>
<path d="M301.256 484.063V641.874H335.53V523.552L384.66 641.946H410.746L458.934 523.552V641.946H493.571V484.136H443.572L397.413 597.313L350.965 484.136H301.256V484.063Z" fill="white"/>
</svg>
