<svg width="1000" height="1000" viewBox="0 0 1000 1000" fill="none" xmlns="http://www.w3.org/2000/svg">
<rect width="1000" height="1000" fill="white"/>
<path fill-rule="evenodd" clip-rule="evenodd" d="M365.82 200.033H839.536V673.748H634.18V799.967H160.465V326.252H365.82V200.033ZM671.69 515.654V484.135H595.532V483.845L596.425 483.451C623.438 471.516 669.226 451.286 669.226 409.722C669.226 376.537 641.401 348.207 602.126 348.207C562.852 348.207 542.707 375.016 533.939 399.288L562.997 410.592C569.518 390.376 581.112 378.059 602.344 378.059C620.894 378.059 636.256 391.825 634.662 410.085C632.633 433.561 607.344 450.66 584.083 463.413C566.258 473.122 538.65 486.961 538.65 486.961V515.799H671.69V515.654ZM301.256 641.874V484.136H350.965L397.413 597.313L443.572 484.136H493.571V641.946H458.934V523.552L410.746 641.946H384.66L335.53 523.552V641.874H301.256Z" fill="white"/>
</svg>
